<svg xmlns="http://www.w3.org/2000/svg" width="64" height="64" viewBox="11 -3 52 60" fill="none" stroke="#C8102E" stroke-width="2" stroke-linecap="round" stroke-linejoin="round">
  <!-- Top half of scone -->
  <ellipse cx="32" cy="8" rx="17" ry="5.5"/>
  <line x1="15" y1="8" x2="15" y2="20"/>
  <line x1="49" y1="8" x2="49" y2="20"/>
  <path d="M15 20 C15 23.5, 22 26, 32 26 C42 26, 49 23.5, 49 20"/>
  <!-- Bottom half of scone -->
  <ellipse cx="32" cy="37" rx="17" ry="5.5"/>
  <line x1="15" y1="37" x2="15" y2="49"/>
  <line x1="49" y1="37" x2="49" y2="49"/>
  <path d="M15 49 C15 52.5, 22 55, 32 55 C42 55, 49 52.5, 49 49"/>
  <!-- Texture dots on top half -->
  <circle cx="25" cy="7" r="1.2" fill="#C8102E" stroke="none"/>
  <circle cx="36" cy="6.5" r="0.9" fill="#C8102E" stroke="none"/>
  <circle cx="31" cy="10" r="1" fill="#C8102E" stroke="none"/>
  <circle cx="24" cy="15" r="1" fill="#C8102E" stroke="none"/>
  <circle cx="40" cy="14" r="0.8" fill="#C8102E" stroke="none"/>
  <!-- Texture dots on bottom half -->
  <circle cx="25" cy="36" r="1.2" fill="#C8102E" stroke="none"/>
  <circle cx="36" cy="35.5" r="0.9" fill="#C8102E" stroke="none"/>
  <circle cx="31" cy="39" r="1" fill="#C8102E" stroke="none"/>
  <circle cx="24" cy="44" r="1" fill="#C8102E" stroke="none"/>
  <circle cx="40" cy="43" r="0.8" fill="#C8102E" stroke="none"/>
  <!-- Sparkle lines -->
  <line x1="52" y1="2" x2="56" y2="-1"/>
  <line x1="55" y1="6" x2="59" y2="4"/>
  <line x1="56" y1="11" x2="60" y2="11"/>
</svg>
